<svg xmlns="http://www.w3.org/2000/svg" width="1200" height="750" viewBox="0 0 1200 750" role="img" aria-label="Saturn — application de messagerie temps réel">
  <defs>
    <linearGradient id="bg" x1="0" y1="0" x2="1" y2="1">
      <stop offset="0" stop-color="#13111c"/>
      <stop offset="1" stop-color="#1c1830"/>
    </linearGradient>
    <radialGradient id="halo" cx="0.72" cy="0.4" r="0.55">
      <stop offset="0" stop-color="#8b5cf6" stop-opacity="0.55"/>
      <stop offset="0.6" stop-color="#8b5cf6" stop-opacity="0.12"/>
      <stop offset="1" stop-color="#8b5cf6" stop-opacity="0"/>
    </radialGradient>
    <linearGradient id="planet" x1="0" y1="0" x2="1" y2="1">
      <stop offset="0" stop-color="#a78bfa"/>
      <stop offset="1" stop-color="#22d3ee"/>
    </linearGradient>
  </defs>
  <rect width="1200" height="750" fill="url(#bg)"/>
  <rect width="1200" height="750" fill="url(#halo)"/>
  <g opacity="0.5" fill="#c4b5fd">
    <circle cx="150" cy="120" r="2"/><circle cx="320" cy="620" r="1.5"/><circle cx="520" cy="90" r="1.5"/>
    <circle cx="960" cy="640" r="2"/><circle cx="1080" cy="140" r="1.5"/><circle cx="240" cy="380" r="1.5"/>
    <circle cx="700" cy="680" r="1.5"/><circle cx="880" cy="80" r="2"/><circle cx="80" cy="560" r="1.5"/>
  </g>
  <g transform="translate(860 320)">
    <circle r="130" fill="url(#planet)" opacity="0.92"/>
    <ellipse rx="230" ry="62" fill="none" stroke="#e9d5ff" stroke-opacity="0.55" stroke-width="10" transform="rotate(-18)"/>
    <ellipse rx="200" ry="50" fill="none" stroke="#67e8f9" stroke-opacity="0.35" stroke-width="4" transform="rotate(-18)"/>
  </g>
  <g font-family="'Space Grotesk', 'Segoe UI', sans-serif">
    <text x="90" y="360" font-size="96" font-weight="700" fill="#f5f3ff" letter-spacing="-2">Saturn</text>
    <text x="92" y="420" font-size="30" fill="#c4b5fd">Messagerie temps réel · communautés · WebRTC</text>
  </g>
  <g transform="translate(90 470)" font-family="'Segoe UI', sans-serif" font-size="22" fill="#ddd6fe">
    <rect width="118" height="46" rx="23" fill="#8b5cf6" fill-opacity="0.16" stroke="#8b5cf6" stroke-opacity="0.4"/>
    <text x="59" y="30" text-anchor="middle">Next.js</text>
    <rect x="134" width="112" height="46" rx="23" fill="#8b5cf6" fill-opacity="0.16" stroke="#8b5cf6" stroke-opacity="0.4"/>
    <text x="190" y="30" text-anchor="middle">NestJS</text>
    <rect x="262" width="128" height="46" rx="23" fill="#8b5cf6" fill-opacity="0.16" stroke="#8b5cf6" stroke-opacity="0.4"/>
    <text x="326" y="30" text-anchor="middle">WebRTC</text>
  </g>
</svg>
